<?xml version="1.0" encoding="UTF-8" ?>
<!DOCTYPE svg PUBLIC "-//W3C//DTD SVG 1.1//EN" "http://www.w3.org/Graphics/SVG/1.1/DTD/svg11.dtd">
<svg width="128" height="115" viewBox="0 0 128 115" preserveAspectRatio="none" version="1.1" xmlns="http://www.w3.org/2000/svg">
<g id="#fc7424ff">
<path fill="#067dc1" opacity="1.00" d=" M 37.22 3.35 C 45.06 -0.03 53.78 0.53 62.09 1.04 C 76.14 3.27 88.01 12.36 96.84 23.13 C 107.21 34.19 117.48 45.36 128.00 56.27 L 128.00 57.76 C 116.32 71.13 103.73 83.71 92.28 97.28 C 84.97 105.16 75.47 111.16 64.97 113.67 C 57.45 114.82 49.69 114.84 42.18 113.56 C 30.18 110.46 19.22 103.11 12.17 92.86 C 6.67 86.03 3.76 77.56 2.04 69.06 C 0.99 63.79 -0.11 58.36 0.85 52.98 C 2.18 45.24 3.63 37.35 7.29 30.31 C 13.44 18.03 24.11 7.82 37.22 3.35 Z" />
</g>
</svg>